<svg xmlns="http://www.w3.org/2000/svg" width="172" height="226" viewBox="-85.8 -8.0 171.7 226.0">
<rect x="-1000" y="-1000" width="3000" height="3000" fill="#1b1512"/>
<rect x="-77.85" y="0" width="155.70" height="210.00" fill="#2a211c" stroke="#c8a06a" stroke-width="1.2"/>
<rect x="-65.85" y="12.00" width="131.70" height="186.00" fill="#f6e9c9"/>
<g stroke="#8a5a2b" stroke-width="1.60" stroke-linecap="round">
<line x1="-65.85" y1="49.00" x2="65.85" y2="49.00"/>
<line x1="-65.85" y1="105.00" x2="65.85" y2="105.00"/>
<line x1="-65.85" y1="161.00" x2="65.85" y2="161.00"/>
<line x1="-33.86" y1="12.00" x2="-33.76" y2="16.09"/>
<line x1="-33.69" y1="13.29" x2="-34.23" y2="20.30"/>
<line x1="-33.88" y1="17.52" x2="-35.11" y2="24.58"/>
<line x1="-34.51" y1="21.84" x2="-36.39" y2="28.90"/>
<line x1="-35.55" y1="26.23" x2="-38.07" y2="33.24"/>
<line x1="-37.02" y1="30.65" x2="-40.14" y2="37.56"/>
<line x1="-38.89" y1="35.06" x2="-42.62" y2="41.84"/>
<line x1="-41.18" y1="39.44" x2="-45.48" y2="46.03"/>
<line x1="-43.86" y1="43.74" x2="-48.73" y2="50.11"/>
<line x1="-47.43" y1="50.33" x2="-49.95" y2="42.91"/>
<line x1="-49.07" y1="45.57" x2="-51.46" y2="38.22"/>
<line x1="-50.61" y1="40.89" x2="-52.86" y2="33.62"/>
<line x1="-52.06" y1="36.30" x2="-54.16" y2="29.11"/>
<line x1="-53.40" y1="31.80" x2="-55.34" y2="24.71"/>
<line x1="-54.63" y1="27.42" x2="-56.41" y2="20.43"/>
<line x1="-55.74" y1="23.15" x2="-57.35" y2="16.28"/>
<line x1="-56.74" y1="19.01" x2="-58.16" y2="12.26"/>
<line x1="-57.62" y1="15.01" x2="-58.17" y2="12.00"/>
<line x1="16.54" y1="12.00" x2="16.64" y2="16.09"/>
<line x1="16.71" y1="13.29" x2="16.17" y2="20.30"/>
<line x1="16.52" y1="17.52" x2="15.29" y2="24.58"/>
<line x1="15.89" y1="21.84" x2="14.01" y2="28.90"/>
<line x1="14.85" y1="26.23" x2="12.33" y2="33.24"/>
<line x1="13.38" y1="30.65" x2="10.26" y2="37.56"/>
<line x1="11.51" y1="35.06" x2="7.78" y2="41.84"/>
<line x1="9.22" y1="39.44" x2="4.92" y2="46.03"/>
<line x1="6.54" y1="43.74" x2="1.67" y2="50.11"/>
<line x1="2.97" y1="50.33" x2="0.45" y2="42.91"/>
<line x1="1.33" y1="45.57" x2="-1.06" y2="38.22"/>
<line x1="-0.21" y1="40.89" x2="-2.46" y2="33.62"/>
<line x1="-1.66" y1="36.30" x2="-3.76" y2="29.11"/>
<line x1="-3.00" y1="31.80" x2="-4.94" y2="24.71"/>
<line x1="-4.23" y1="27.42" x2="-6.01" y2="20.43"/>
<line x1="-5.34" y1="23.15" x2="-6.95" y2="16.28"/>
<line x1="-6.34" y1="19.01" x2="-7.76" y2="12.26"/>
<line x1="-7.22" y1="15.01" x2="-7.77" y2="12.00"/>
<line x1="65.85" y1="23.67" x2="65.69" y2="24.58"/>
<line x1="65.85" y1="23.50" x2="64.41" y2="28.90"/>
<line x1="65.25" y1="26.23" x2="62.73" y2="33.24"/>
<line x1="63.78" y1="30.65" x2="60.66" y2="37.56"/>
<line x1="61.91" y1="35.06" x2="58.18" y2="41.84"/>
<line x1="59.62" y1="39.44" x2="55.32" y2="46.03"/>
<line x1="56.94" y1="43.74" x2="52.07" y2="50.11"/>
<line x1="53.37" y1="50.33" x2="50.85" y2="42.91"/>
<line x1="51.73" y1="45.57" x2="49.34" y2="38.22"/>
<line x1="50.19" y1="40.89" x2="47.94" y2="33.62"/>
<line x1="48.74" y1="36.30" x2="46.64" y2="29.11"/>
<line x1="47.40" y1="31.80" x2="45.46" y2="24.71"/>
<line x1="46.17" y1="27.42" x2="44.39" y2="20.43"/>
<line x1="45.06" y1="23.15" x2="43.45" y2="16.28"/>
<line x1="44.06" y1="19.01" x2="42.64" y2="12.26"/>
<line x1="43.18" y1="15.01" x2="42.63" y2="12.00"/>
<line x1="-33.94" y1="47.88" x2="-37.88" y2="53.15"/>
<line x1="-36.36" y1="50.80" x2="-39.53" y2="56.56"/>
<line x1="-38.35" y1="54.03" x2="-40.75" y2="60.19"/>
<line x1="-39.90" y1="57.53" x2="-41.53" y2="64.01"/>
<line x1="-41.01" y1="61.26" x2="-41.89" y2="67.98"/>
<line x1="-41.68" y1="65.19" x2="-41.84" y2="72.09"/>
<line x1="-41.91" y1="69.29" x2="-41.37" y2="76.30"/>
<line x1="-41.72" y1="73.52" x2="-40.49" y2="80.58"/>
<line x1="-41.09" y1="77.84" x2="-39.21" y2="84.90"/>
<line x1="-40.05" y1="82.23" x2="-37.53" y2="89.24"/>
<line x1="-38.58" y1="86.65" x2="-35.46" y2="93.56"/>
<line x1="-36.71" y1="91.06" x2="-32.98" y2="97.84"/>
<line x1="-34.42" y1="95.44" x2="-30.12" y2="102.03"/>
<line x1="-31.74" y1="99.74" x2="-26.87" y2="106.11"/>
<line x1="-28.17" y1="106.33" x2="-25.65" y2="98.91"/>
<line x1="-26.53" y1="101.57" x2="-24.14" y2="94.22"/>
<line x1="-24.99" y1="96.89" x2="-22.74" y2="89.62"/>
<line x1="-23.54" y1="92.30" x2="-21.44" y2="85.11"/>
<line x1="-22.20" y1="87.80" x2="-20.26" y2="80.71"/>
<line x1="-20.97" y1="83.42" x2="-19.19" y2="76.43"/>
<line x1="-19.86" y1="79.15" x2="-18.25" y2="72.28"/>
<line x1="-18.86" y1="75.01" x2="-17.44" y2="68.26"/>
<line x1="-17.98" y1="71.01" x2="-16.77" y2="64.39"/>
<line x1="-17.24" y1="67.15" x2="-16.24" y2="60.68"/>
<line x1="-16.62" y1="63.45" x2="-15.85" y2="57.13"/>
<line x1="-16.14" y1="59.92" x2="-15.62" y2="53.76"/>
<line x1="-15.79" y1="56.56" x2="-15.54" y2="50.58"/>
<line x1="-15.59" y1="53.38" x2="-15.63" y2="47.60"/>
<line x1="-22.91" y1="48.43" x2="-29.24" y2="51.24"/>
<line x1="-27.11" y1="49.56" x2="-31.11" y2="54.78"/>
<line x1="-30.04" y1="52.29" x2="-31.00" y2="58.48"/>
<line x1="-31.26" y1="55.78" x2="-29.24" y2="61.41"/>
<line x1="-30.76" y1="59.16" x2="-26.48" y2="62.95"/>
<line x1="-28.89" y1="61.71" x2="-23.55" y2="62.94"/>
<line x1="-26.27" y1="63.00" x2="-21.21" y2="61.58"/>
<line x1="-23.56" y1="62.94" x2="-19.94" y2="59.40"/>
<line x1="-21.35" y1="61.72" x2="-19.93" y2="57.07"/>
<line x1="-20.06" y1="59.78" x2="-21.00" y2="55.18"/>
<line x1="-19.82" y1="57.62" x2="-22.75" y2="54.15"/>
<line x1="-20.54" y1="55.73" x2="-24.64" y2="54.14"/>
<line x1="-21.95" y1="54.46" x2="-26.17" y2="55.02"/>
<line x1="-23.66" y1="54.01" x2="-27.00" y2="56.46"/>
<line x1="-25.27" y1="54.36" x2="-26.99" y2="58.01"/>
<line x1="-26.48" y1="55.35" x2="-26.24" y2="59.27"/>
<line x1="-27.07" y1="56.69" x2="-25.03" y2="59.94"/>
<line x1="-27.00" y1="58.07" x2="-23.72" y2="59.90"/>
<line x1="-26.35" y1="59.20" x2="-22.67" y2="59.24"/>
<line x1="-25.31" y1="59.89" x2="-22.13" y2="58.20"/>
<line x1="-24.14" y1="60.02" x2="-22.19" y2="57.07"/>
<line x1="-23.08" y1="59.63" x2="-22.79" y2="56.17"/>
<line x1="16.46" y1="47.88" x2="12.52" y2="53.15"/>
<line x1="14.04" y1="50.80" x2="10.87" y2="56.56"/>
<line x1="12.05" y1="54.03" x2="9.65" y2="60.19"/>
<line x1="10.50" y1="57.53" x2="8.87" y2="64.01"/>
<line x1="9.39" y1="61.26" x2="8.51" y2="67.98"/>
<line x1="8.72" y1="65.19" x2="8.56" y2="72.09"/>
<line x1="8.49" y1="69.29" x2="9.03" y2="76.30"/>
<line x1="8.68" y1="73.52" x2="9.91" y2="80.58"/>
<line x1="9.31" y1="77.84" x2="11.19" y2="84.90"/>
<line x1="10.35" y1="82.23" x2="12.87" y2="89.24"/>
<line x1="11.82" y1="86.65" x2="14.94" y2="93.56"/>
<line x1="13.69" y1="91.06" x2="17.42" y2="97.84"/>
<line x1="15.98" y1="95.44" x2="20.28" y2="102.03"/>
<line x1="18.66" y1="99.74" x2="23.53" y2="106.11"/>
<line x1="22.23" y1="106.33" x2="24.75" y2="98.91"/>
<line x1="23.87" y1="101.57" x2="26.26" y2="94.22"/>
<line x1="25.41" y1="96.89" x2="27.66" y2="89.62"/>
<line x1="26.86" y1="92.30" x2="28.96" y2="85.11"/>
<line x1="28.20" y1="87.80" x2="30.14" y2="80.71"/>
<line x1="29.43" y1="83.42" x2="31.21" y2="76.43"/>
<line x1="30.54" y1="79.15" x2="32.15" y2="72.28"/>
<line x1="31.54" y1="75.01" x2="32.96" y2="68.26"/>
<line x1="32.42" y1="71.01" x2="33.63" y2="64.39"/>
<line x1="33.16" y1="67.15" x2="34.16" y2="60.68"/>
<line x1="33.78" y1="63.45" x2="34.55" y2="57.13"/>
<line x1="34.26" y1="59.92" x2="34.78" y2="53.76"/>
<line x1="34.61" y1="56.56" x2="34.86" y2="50.58"/>
<line x1="34.81" y1="53.38" x2="34.77" y2="47.60"/>
<line x1="27.49" y1="48.43" x2="21.16" y2="51.24"/>
<line x1="23.29" y1="49.56" x2="19.29" y2="54.78"/>
<line x1="20.36" y1="52.29" x2="19.40" y2="58.48"/>
<line x1="19.14" y1="55.78" x2="21.16" y2="61.41"/>
<line x1="19.64" y1="59.16" x2="23.92" y2="62.95"/>
<line x1="21.51" y1="61.71" x2="26.85" y2="62.94"/>
<line x1="24.13" y1="63.00" x2="29.19" y2="61.58"/>
<line x1="26.84" y1="62.94" x2="30.46" y2="59.40"/>
<line x1="29.05" y1="61.72" x2="30.47" y2="57.07"/>
<line x1="30.34" y1="59.78" x2="29.40" y2="55.18"/>
<line x1="30.58" y1="57.62" x2="27.65" y2="54.15"/>
<line x1="29.86" y1="55.73" x2="25.76" y2="54.14"/>
<line x1="28.45" y1="54.46" x2="24.23" y2="55.02"/>
<line x1="26.74" y1="54.01" x2="23.40" y2="56.46"/>
<line x1="25.13" y1="54.36" x2="23.41" y2="58.01"/>
<line x1="23.92" y1="55.35" x2="24.16" y2="59.27"/>
<line x1="23.33" y1="56.69" x2="25.37" y2="59.94"/>
<line x1="23.40" y1="58.07" x2="26.68" y2="59.90"/>
<line x1="24.05" y1="59.20" x2="27.73" y2="59.24"/>
<line x1="25.09" y1="59.89" x2="28.27" y2="58.20"/>
<line x1="26.26" y1="60.02" x2="28.21" y2="57.07"/>
<line x1="27.32" y1="59.63" x2="27.61" y2="56.17"/>
<line x1="65.85" y1="49.23" x2="62.92" y2="53.15"/>
<line x1="64.44" y1="50.80" x2="61.27" y2="56.56"/>
<line x1="62.45" y1="54.03" x2="60.05" y2="60.19"/>
<line x1="60.90" y1="57.53" x2="59.27" y2="64.01"/>
<line x1="59.79" y1="61.26" x2="58.91" y2="67.98"/>
<line x1="59.12" y1="65.19" x2="58.96" y2="72.09"/>
<line x1="58.89" y1="69.29" x2="59.43" y2="76.30"/>
<line x1="59.08" y1="73.52" x2="60.31" y2="80.58"/>
<line x1="59.71" y1="77.84" x2="61.59" y2="84.90"/>
<line x1="60.75" y1="82.23" x2="63.27" y2="89.24"/>
<line x1="62.22" y1="86.65" x2="65.34" y2="93.56"/>
<line x1="64.09" y1="91.06" x2="65.85" y2="94.26"/>
<line x1="-41.66" y1="103.88" x2="-37.72" y2="109.15"/>
<line x1="-39.24" y1="106.80" x2="-36.07" y2="112.56"/>
<line x1="-37.25" y1="110.03" x2="-34.85" y2="116.19"/>
<line x1="-35.70" y1="113.53" x2="-34.07" y2="120.01"/>
<line x1="-34.59" y1="117.26" x2="-33.71" y2="123.98"/>
<line x1="-33.92" y1="121.19" x2="-33.76" y2="128.09"/>
<line x1="-33.69" y1="125.29" x2="-34.23" y2="132.30"/>
<line x1="-33.88" y1="129.52" x2="-35.11" y2="136.58"/>
<line x1="-34.51" y1="133.84" x2="-36.39" y2="140.90"/>
<line x1="-35.55" y1="138.23" x2="-38.07" y2="145.24"/>
<line x1="-37.02" y1="142.65" x2="-40.14" y2="149.56"/>
<line x1="-38.89" y1="147.06" x2="-42.62" y2="153.84"/>
<line x1="-41.18" y1="151.44" x2="-45.48" y2="158.03"/>
<line x1="-43.86" y1="155.74" x2="-48.73" y2="162.11"/>
<line x1="-47.43" y1="162.33" x2="-49.95" y2="154.91"/>
<line x1="-49.07" y1="157.57" x2="-51.46" y2="150.22"/>
<line x1="-50.61" y1="152.89" x2="-52.86" y2="145.62"/>
<line x1="-52.06" y1="148.30" x2="-54.16" y2="141.11"/>
<line x1="-53.40" y1="143.80" x2="-55.34" y2="136.71"/>
<line x1="-54.63" y1="139.42" x2="-56.41" y2="132.43"/>
<line x1="-55.74" y1="135.15" x2="-57.35" y2="128.28"/>
<line x1="-56.74" y1="131.01" x2="-58.16" y2="124.26"/>
<line x1="-57.62" y1="127.01" x2="-58.83" y2="120.39"/>
<line x1="-58.36" y1="123.15" x2="-59.36" y2="116.68"/>
<line x1="-58.98" y1="119.45" x2="-59.75" y2="113.13"/>
<line x1="-59.46" y1="115.92" x2="-59.98" y2="109.76"/>
<line x1="-59.81" y1="112.56" x2="-60.06" y2="106.58"/>
<line x1="-60.01" y1="109.38" x2="-59.97" y2="103.60"/>
<line x1="-52.69" y1="104.43" x2="-46.36" y2="107.24"/>
<line x1="-48.49" y1="105.56" x2="-44.49" y2="110.78"/>
<line x1="-45.56" y1="108.29" x2="-44.60" y2="114.48"/>
<line x1="-44.34" y1="111.78" x2="-46.36" y2="117.41"/>
<line x1="-44.84" y1="115.16" x2="-49.12" y2="118.95"/>
<line x1="-46.71" y1="117.71" x2="-52.05" y2="118.94"/>
<line x1="-49.33" y1="119.00" x2="-54.39" y2="117.58"/>
<line x1="-52.04" y1="118.94" x2="-55.66" y2="115.40"/>
<line x1="-54.25" y1="117.72" x2="-55.67" y2="113.07"/>
<line x1="-55.54" y1="115.78" x2="-54.60" y2="111.18"/>
<line x1="-55.78" y1="113.62" x2="-52.85" y2="110.15"/>
<line x1="-55.06" y1="111.73" x2="-50.96" y2="110.14"/>
<line x1="-53.65" y1="110.46" x2="-49.43" y2="111.02"/>
<line x1="-51.94" y1="110.01" x2="-48.60" y2="112.46"/>
<line x1="-50.33" y1="110.36" x2="-48.61" y2="114.01"/>
<line x1="-49.12" y1="111.35" x2="-49.36" y2="115.27"/>
<line x1="-48.53" y1="112.69" x2="-50.57" y2="115.94"/>
<line x1="-48.60" y1="114.07" x2="-51.88" y2="115.90"/>
<line x1="-49.25" y1="115.20" x2="-52.93" y2="115.24"/>
<line x1="-50.29" y1="115.89" x2="-53.47" y2="114.20"/>
<line x1="-51.46" y1="116.02" x2="-53.41" y2="113.07"/>
<line x1="-52.52" y1="115.63" x2="-52.81" y2="112.17"/>
<line x1="8.74" y1="103.88" x2="12.68" y2="109.15"/>
<line x1="11.16" y1="106.80" x2="14.33" y2="112.56"/>
<line x1="13.15" y1="110.03" x2="15.55" y2="116.19"/>
<line x1="14.70" y1="113.53" x2="16.33" y2="120.01"/>
<line x1="15.81" y1="117.26" x2="16.69" y2="123.98"/>
<line x1="16.48" y1="121.19" x2="16.64" y2="128.09"/>
<line x1="16.71" y1="125.29" x2="16.17" y2="132.30"/>
<line x1="16.52" y1="129.52" x2="15.29" y2="136.58"/>
<line x1="15.89" y1="133.84" x2="14.01" y2="140.90"/>
<line x1="14.85" y1="138.23" x2="12.33" y2="145.24"/>
<line x1="13.38" y1="142.65" x2="10.26" y2="149.56"/>
<line x1="11.51" y1="147.06" x2="7.78" y2="153.84"/>
<line x1="9.22" y1="151.44" x2="4.92" y2="158.03"/>
<line x1="6.54" y1="155.74" x2="1.67" y2="162.11"/>
<line x1="2.97" y1="162.33" x2="0.45" y2="154.91"/>
<line x1="1.33" y1="157.57" x2="-1.06" y2="150.22"/>
<line x1="-0.21" y1="152.89" x2="-2.46" y2="145.62"/>
<line x1="-1.66" y1="148.30" x2="-3.76" y2="141.11"/>
<line x1="-3.00" y1="143.80" x2="-4.94" y2="136.71"/>
<line x1="-4.23" y1="139.42" x2="-6.01" y2="132.43"/>
<line x1="-5.34" y1="135.15" x2="-6.95" y2="128.28"/>
<line x1="-6.34" y1="131.01" x2="-7.76" y2="124.26"/>
<line x1="-7.22" y1="127.01" x2="-8.43" y2="120.39"/>
<line x1="-7.96" y1="123.15" x2="-8.96" y2="116.68"/>
<line x1="-8.58" y1="119.45" x2="-9.35" y2="113.13"/>
<line x1="-9.06" y1="115.92" x2="-9.58" y2="109.76"/>
<line x1="-9.41" y1="112.56" x2="-9.66" y2="106.58"/>
<line x1="-9.61" y1="109.38" x2="-9.57" y2="103.60"/>
<line x1="-2.29" y1="104.43" x2="4.04" y2="107.24"/>
<line x1="1.91" y1="105.56" x2="5.91" y2="110.78"/>
<line x1="4.84" y1="108.29" x2="5.80" y2="114.48"/>
<line x1="6.06" y1="111.78" x2="4.04" y2="117.41"/>
<line x1="5.56" y1="115.16" x2="1.28" y2="118.95"/>
<line x1="3.69" y1="117.71" x2="-1.65" y2="118.94"/>
<line x1="1.07" y1="119.00" x2="-3.99" y2="117.58"/>
<line x1="-1.64" y1="118.94" x2="-5.26" y2="115.40"/>
<line x1="-3.85" y1="117.72" x2="-5.27" y2="113.07"/>
<line x1="-5.14" y1="115.78" x2="-4.20" y2="111.18"/>
<line x1="-5.38" y1="113.62" x2="-2.45" y2="110.15"/>
<line x1="-4.66" y1="111.73" x2="-0.56" y2="110.14"/>
<line x1="-3.25" y1="110.46" x2="0.97" y2="111.02"/>
<line x1="-1.54" y1="110.01" x2="1.80" y2="112.46"/>
<line x1="0.07" y1="110.36" x2="1.79" y2="114.01"/>
<line x1="1.28" y1="111.35" x2="1.04" y2="115.27"/>
<line x1="1.87" y1="112.69" x2="-0.17" y2="115.94"/>
<line x1="1.80" y1="114.07" x2="-1.48" y2="115.90"/>
<line x1="1.15" y1="115.20" x2="-2.53" y2="115.24"/>
<line x1="0.11" y1="115.89" x2="-3.07" y2="114.20"/>
<line x1="-1.06" y1="116.02" x2="-3.01" y2="113.07"/>
<line x1="-2.12" y1="115.63" x2="-2.41" y2="112.17"/>
<line x1="59.14" y1="103.88" x2="63.08" y2="109.15"/>
<line x1="61.56" y1="106.80" x2="64.73" y2="112.56"/>
<line x1="63.55" y1="110.03" x2="65.85" y2="115.94"/>
<line x1="65.10" y1="113.53" x2="65.85" y2="116.51"/>
<line x1="65.85" y1="135.67" x2="65.69" y2="136.58"/>
<line x1="65.85" y1="135.50" x2="64.41" y2="140.90"/>
<line x1="65.25" y1="138.23" x2="62.73" y2="145.24"/>
<line x1="63.78" y1="142.65" x2="60.66" y2="149.56"/>
<line x1="61.91" y1="147.06" x2="58.18" y2="153.84"/>
<line x1="59.62" y1="151.44" x2="55.32" y2="158.03"/>
<line x1="56.94" y1="155.74" x2="52.07" y2="162.11"/>
<line x1="53.37" y1="162.33" x2="50.85" y2="154.91"/>
<line x1="51.73" y1="157.57" x2="49.34" y2="150.22"/>
<line x1="50.19" y1="152.89" x2="47.94" y2="145.62"/>
<line x1="48.74" y1="148.30" x2="46.64" y2="141.11"/>
<line x1="47.40" y1="143.80" x2="45.46" y2="136.71"/>
<line x1="46.17" y1="139.42" x2="44.39" y2="132.43"/>
<line x1="45.06" y1="135.15" x2="43.45" y2="128.28"/>
<line x1="44.06" y1="131.01" x2="42.64" y2="124.26"/>
<line x1="43.18" y1="127.01" x2="41.97" y2="120.39"/>
<line x1="42.44" y1="123.15" x2="41.44" y2="116.68"/>
<line x1="41.82" y1="119.45" x2="41.05" y2="113.13"/>
<line x1="41.34" y1="115.92" x2="40.82" y2="109.76"/>
<line x1="40.99" y1="112.56" x2="40.74" y2="106.58"/>
<line x1="40.79" y1="109.38" x2="40.83" y2="103.60"/>
<line x1="48.11" y1="104.43" x2="54.44" y2="107.24"/>
<line x1="52.31" y1="105.56" x2="56.31" y2="110.78"/>
<line x1="55.24" y1="108.29" x2="56.20" y2="114.48"/>
<line x1="56.46" y1="111.78" x2="54.44" y2="117.41"/>
<line x1="55.96" y1="115.16" x2="51.68" y2="118.95"/>
<line x1="54.09" y1="117.71" x2="48.75" y2="118.94"/>
<line x1="51.47" y1="119.00" x2="46.41" y2="117.58"/>
<line x1="48.76" y1="118.94" x2="45.14" y2="115.40"/>
<line x1="46.55" y1="117.72" x2="45.13" y2="113.07"/>
<line x1="45.26" y1="115.78" x2="46.20" y2="111.18"/>
<line x1="45.02" y1="113.62" x2="47.95" y2="110.15"/>
<line x1="45.74" y1="111.73" x2="49.84" y2="110.14"/>
<line x1="47.15" y1="110.46" x2="51.37" y2="111.02"/>
<line x1="48.86" y1="110.01" x2="52.20" y2="112.46"/>
<line x1="50.47" y1="110.36" x2="52.19" y2="114.01"/>
<line x1="51.68" y1="111.35" x2="51.44" y2="115.27"/>
<line x1="52.27" y1="112.69" x2="50.23" y2="115.94"/>
<line x1="52.20" y1="114.07" x2="48.92" y2="115.90"/>
<line x1="51.55" y1="115.20" x2="47.87" y2="115.24"/>
<line x1="50.51" y1="115.89" x2="47.33" y2="114.20"/>
<line x1="49.34" y1="116.02" x2="47.39" y2="113.07"/>
<line x1="48.28" y1="115.63" x2="47.99" y2="112.17"/>
<line x1="-33.94" y1="159.88" x2="-37.88" y2="165.15"/>
<line x1="-36.36" y1="162.80" x2="-39.53" y2="168.56"/>
<line x1="-38.35" y1="166.03" x2="-40.75" y2="172.19"/>
<line x1="-39.90" y1="169.53" x2="-41.53" y2="176.01"/>
<line x1="-41.01" y1="173.26" x2="-41.89" y2="179.98"/>
<line x1="-41.68" y1="177.19" x2="-41.84" y2="184.09"/>
<line x1="-41.91" y1="181.29" x2="-41.37" y2="188.30"/>
<line x1="-41.72" y1="185.52" x2="-40.49" y2="192.58"/>
<line x1="-41.09" y1="189.84" x2="-39.21" y2="196.90"/>
<line x1="-40.05" y1="194.23" x2="-38.69" y2="198.00"/>
<line x1="-21.70" y1="198.00" x2="-21.44" y2="197.11"/>
<line x1="-21.71" y1="198.00" x2="-20.26" y2="192.71"/>
<line x1="-20.97" y1="195.42" x2="-19.19" y2="188.43"/>
<line x1="-19.86" y1="191.15" x2="-18.25" y2="184.28"/>
<line x1="-18.86" y1="187.01" x2="-17.44" y2="180.26"/>
<line x1="-17.98" y1="183.01" x2="-16.77" y2="176.39"/>
<line x1="-17.24" y1="179.15" x2="-16.24" y2="172.68"/>
<line x1="-16.62" y1="175.45" x2="-15.85" y2="169.13"/>
<line x1="-16.14" y1="171.92" x2="-15.62" y2="165.76"/>
<line x1="-15.79" y1="168.56" x2="-15.54" y2="162.58"/>
<line x1="-15.59" y1="165.38" x2="-15.63" y2="159.60"/>
<line x1="-22.91" y1="160.43" x2="-29.24" y2="163.24"/>
<line x1="-27.11" y1="161.56" x2="-31.11" y2="166.78"/>
<line x1="-30.04" y1="164.29" x2="-31.00" y2="170.48"/>
<line x1="-31.26" y1="167.78" x2="-29.24" y2="173.41"/>
<line x1="-30.76" y1="171.16" x2="-26.48" y2="174.95"/>
<line x1="-28.89" y1="173.71" x2="-23.55" y2="174.94"/>
<line x1="-26.27" y1="175.00" x2="-21.21" y2="173.58"/>
<line x1="-23.56" y1="174.94" x2="-19.94" y2="171.40"/>
<line x1="-21.35" y1="173.72" x2="-19.93" y2="169.07"/>
<line x1="-20.06" y1="171.78" x2="-21.00" y2="167.18"/>
<line x1="-19.82" y1="169.62" x2="-22.75" y2="166.15"/>
<line x1="-20.54" y1="167.73" x2="-24.64" y2="166.14"/>
<line x1="-21.95" y1="166.46" x2="-26.17" y2="167.02"/>
<line x1="-23.66" y1="166.01" x2="-27.00" y2="168.46"/>
<line x1="-25.27" y1="166.36" x2="-26.99" y2="170.01"/>
<line x1="-26.48" y1="167.35" x2="-26.24" y2="171.27"/>
<line x1="-27.07" y1="168.69" x2="-25.03" y2="171.94"/>
<line x1="-27.00" y1="170.07" x2="-23.72" y2="171.90"/>
<line x1="-26.35" y1="171.20" x2="-22.67" y2="171.24"/>
<line x1="-25.31" y1="171.89" x2="-22.13" y2="170.20"/>
<line x1="-24.14" y1="172.02" x2="-22.19" y2="169.07"/>
<line x1="-23.08" y1="171.63" x2="-22.79" y2="168.17"/>
<line x1="16.46" y1="159.88" x2="12.52" y2="165.15"/>
<line x1="14.04" y1="162.80" x2="10.87" y2="168.56"/>
<line x1="12.05" y1="166.03" x2="9.65" y2="172.19"/>
<line x1="10.50" y1="169.53" x2="8.87" y2="176.01"/>
<line x1="9.39" y1="173.26" x2="8.51" y2="179.98"/>
<line x1="8.72" y1="177.19" x2="8.56" y2="184.09"/>
<line x1="8.49" y1="181.29" x2="9.03" y2="188.30"/>
<line x1="8.68" y1="185.52" x2="9.91" y2="192.58"/>
<line x1="9.31" y1="189.84" x2="11.19" y2="196.90"/>
<line x1="10.35" y1="194.23" x2="11.71" y2="198.00"/>
<line x1="28.70" y1="198.00" x2="28.96" y2="197.11"/>
<line x1="28.69" y1="198.00" x2="30.14" y2="192.71"/>
<line x1="29.43" y1="195.42" x2="31.21" y2="188.43"/>
<line x1="30.54" y1="191.15" x2="32.15" y2="184.28"/>
<line x1="31.54" y1="187.01" x2="32.96" y2="180.26"/>
<line x1="32.42" y1="183.01" x2="33.63" y2="176.39"/>
<line x1="33.16" y1="179.15" x2="34.16" y2="172.68"/>
<line x1="33.78" y1="175.45" x2="34.55" y2="169.13"/>
<line x1="34.26" y1="171.92" x2="34.78" y2="165.76"/>
<line x1="34.61" y1="168.56" x2="34.86" y2="162.58"/>
<line x1="34.81" y1="165.38" x2="34.77" y2="159.60"/>
<line x1="27.49" y1="160.43" x2="21.16" y2="163.24"/>
<line x1="23.29" y1="161.56" x2="19.29" y2="166.78"/>
<line x1="20.36" y1="164.29" x2="19.40" y2="170.48"/>
<line x1="19.14" y1="167.78" x2="21.16" y2="173.41"/>
<line x1="19.64" y1="171.16" x2="23.92" y2="174.95"/>
<line x1="21.51" y1="173.71" x2="26.85" y2="174.94"/>
<line x1="24.13" y1="175.00" x2="29.19" y2="173.58"/>
<line x1="26.84" y1="174.94" x2="30.46" y2="171.40"/>
<line x1="29.05" y1="173.72" x2="30.47" y2="169.07"/>
<line x1="30.34" y1="171.78" x2="29.40" y2="167.18"/>
<line x1="30.58" y1="169.62" x2="27.65" y2="166.15"/>
<line x1="29.86" y1="167.73" x2="25.76" y2="166.14"/>
<line x1="28.45" y1="166.46" x2="24.23" y2="167.02"/>
<line x1="26.74" y1="166.01" x2="23.40" y2="168.46"/>
<line x1="25.13" y1="166.36" x2="23.41" y2="170.01"/>
<line x1="23.92" y1="167.35" x2="24.16" y2="171.27"/>
<line x1="23.33" y1="168.69" x2="25.37" y2="171.94"/>
<line x1="23.40" y1="170.07" x2="26.68" y2="171.90"/>
<line x1="24.05" y1="171.20" x2="27.73" y2="171.24"/>
<line x1="25.09" y1="171.89" x2="28.27" y2="170.20"/>
<line x1="26.26" y1="172.02" x2="28.21" y2="169.07"/>
<line x1="27.32" y1="171.63" x2="27.61" y2="168.17"/>
<line x1="65.85" y1="161.23" x2="62.92" y2="165.15"/>
<line x1="64.44" y1="162.80" x2="61.27" y2="168.56"/>
<line x1="62.45" y1="166.03" x2="60.05" y2="172.19"/>
<line x1="60.90" y1="169.53" x2="59.27" y2="176.01"/>
<line x1="59.79" y1="173.26" x2="58.91" y2="179.98"/>
<line x1="59.12" y1="177.19" x2="58.96" y2="184.09"/>
<line x1="58.89" y1="181.29" x2="59.43" y2="188.30"/>
<line x1="59.08" y1="185.52" x2="60.31" y2="192.58"/>
<line x1="59.71" y1="189.84" x2="61.59" y2="196.90"/>
<line x1="60.75" y1="194.23" x2="62.11" y2="198.00"/>
</g>
<text x="-73.8" y="216.0" fill="#c8a06a" font-family="monospace" font-size="7">kranok_kan_khot  155.7 x 210.0 x 4.0 mm  grid 28.0 mm</text>
</svg>