<svg xmlns="http://www.w3.org/2000/svg" width="172" height="226" viewBox="-85.8 -8.0 171.7 226.0">
<rect x="-1000" y="-1000" width="3000" height="3000" fill="#1b1512"/>
<rect x="-77.85" y="0" width="155.70" height="210.00" fill="#2a211c" stroke="#c8a06a" stroke-width="1.2"/>
<rect x="-65.85" y="12.00" width="131.70" height="186.00" fill="#f6e9c9"/>
<g stroke="#8a5a2b" stroke-width="1.60" stroke-linecap="round">
<line x1="-50.73" y1="32.25" x2="-42.00" y2="32.25"/>
<line x1="-42.00" y1="32.25" x2="-44.96" y2="27.12"/>
<line x1="-42.00" y1="32.25" x2="-50.73" y2="27.21"/>
<line x1="-39.04" y1="27.12" x2="-42.00" y2="32.25"/>
<line x1="-42.00" y1="32.25" x2="-42.00" y2="27.12"/>
<line x1="-42.00" y1="32.25" x2="-14.00" y2="32.25"/>
<line x1="-14.00" y1="32.25" x2="-16.96" y2="27.12"/>
<line x1="-42.00" y1="32.25" x2="-33.11" y2="27.12"/>
<line x1="-14.00" y1="32.25" x2="-22.89" y2="27.12"/>
<line x1="-11.04" y1="27.12" x2="-14.00" y2="32.25"/>
<line x1="-14.00" y1="32.25" x2="-14.00" y2="27.12"/>
<line x1="-14.00" y1="32.25" x2="14.00" y2="32.25"/>
<line x1="14.00" y1="32.25" x2="11.04" y2="27.12"/>
<line x1="-14.00" y1="32.25" x2="-5.11" y2="27.12"/>
<line x1="14.00" y1="32.25" x2="5.11" y2="27.12"/>
<line x1="16.96" y1="27.12" x2="14.00" y2="32.25"/>
<line x1="14.00" y1="32.25" x2="14.00" y2="27.12"/>
<line x1="14.00" y1="32.25" x2="42.00" y2="32.25"/>
<line x1="42.00" y1="32.25" x2="39.04" y2="27.12"/>
<line x1="14.00" y1="32.25" x2="22.89" y2="27.12"/>
<line x1="42.00" y1="32.25" x2="33.11" y2="27.12"/>
<line x1="44.96" y1="27.12" x2="42.00" y2="32.25"/>
<line x1="42.00" y1="32.25" x2="42.00" y2="27.12"/>
<line x1="42.00" y1="32.25" x2="50.73" y2="32.25"/>
<line x1="42.00" y1="32.25" x2="50.73" y2="27.21"/>
<line x1="-42.00" y1="32.25" x2="-50.73" y2="47.37"/>
<line x1="-42.00" y1="32.25" x2="-50.73" y2="37.29"/>
<line x1="-14.00" y1="32.25" x2="-28.00" y2="56.50"/>
<line x1="-28.00" y1="56.50" x2="-42.00" y2="32.25"/>
<line x1="-42.00" y1="32.25" x2="-28.00" y2="40.34"/>
<line x1="-14.00" y1="32.25" x2="-28.00" y2="40.34"/>
<line x1="-28.00" y1="56.50" x2="-28.00" y2="40.34"/>
<line x1="-50.73" y1="56.50" x2="-28.00" y2="56.50"/>
<line x1="-50.73" y1="53.46" x2="-42.00" y2="48.42"/>
<line x1="-28.00" y1="56.50" x2="-42.00" y2="48.42"/>
<line x1="-42.00" y1="32.25" x2="-42.00" y2="48.42"/>
<line x1="14.00" y1="32.25" x2="0.00" y2="56.50"/>
<line x1="0.00" y1="56.50" x2="-14.00" y2="32.25"/>
<line x1="-14.00" y1="32.25" x2="0.00" y2="40.34"/>
<line x1="14.00" y1="32.25" x2="0.00" y2="40.34"/>
<line x1="0.00" y1="56.50" x2="0.00" y2="40.34"/>
<line x1="-28.00" y1="56.50" x2="0.00" y2="56.50"/>
<line x1="-28.00" y1="56.50" x2="-14.00" y2="48.42"/>
<line x1="0.00" y1="56.50" x2="-14.00" y2="48.42"/>
<line x1="-14.00" y1="32.25" x2="-14.00" y2="48.42"/>
<line x1="42.00" y1="32.25" x2="28.00" y2="56.50"/>
<line x1="28.00" y1="56.50" x2="14.00" y2="32.25"/>
<line x1="14.00" y1="32.25" x2="28.00" y2="40.34"/>
<line x1="42.00" y1="32.25" x2="28.00" y2="40.34"/>
<line x1="28.00" y1="56.50" x2="28.00" y2="40.34"/>
<line x1="0.00" y1="56.50" x2="28.00" y2="56.50"/>
<line x1="0.00" y1="56.50" x2="14.00" y2="48.42"/>
<line x1="28.00" y1="56.50" x2="14.00" y2="48.42"/>
<line x1="14.00" y1="32.25" x2="14.00" y2="48.42"/>
<line x1="50.73" y1="47.37" x2="42.00" y2="32.25"/>
<line x1="42.00" y1="32.25" x2="50.73" y2="37.29"/>
<line x1="28.00" y1="56.50" x2="50.73" y2="56.50"/>
<line x1="28.00" y1="56.50" x2="42.00" y2="48.42"/>
<line x1="50.73" y1="53.46" x2="42.00" y2="48.42"/>
<line x1="42.00" y1="32.25" x2="42.00" y2="48.42"/>
<line x1="-50.73" y1="80.75" x2="-42.00" y2="80.75"/>
<line x1="-42.00" y1="80.75" x2="-50.73" y2="65.63"/>
<line x1="-42.00" y1="80.75" x2="-50.73" y2="75.71"/>
<line x1="-28.00" y1="56.50" x2="-42.00" y2="80.75"/>
<line x1="-50.73" y1="59.55" x2="-42.00" y2="64.59"/>
<line x1="-28.00" y1="56.50" x2="-42.00" y2="64.59"/>
<line x1="-42.00" y1="80.75" x2="-42.00" y2="64.59"/>
<line x1="-42.00" y1="80.75" x2="-14.00" y2="80.75"/>
<line x1="-14.00" y1="80.75" x2="-28.00" y2="56.50"/>
<line x1="-42.00" y1="80.75" x2="-28.00" y2="72.67"/>
<line x1="-14.00" y1="80.75" x2="-28.00" y2="72.67"/>
<line x1="-28.00" y1="56.50" x2="-28.00" y2="72.67"/>
<line x1="0.00" y1="56.50" x2="-14.00" y2="80.75"/>
<line x1="-28.00" y1="56.50" x2="-14.00" y2="64.59"/>
<line x1="0.00" y1="56.50" x2="-14.00" y2="64.59"/>
<line x1="-14.00" y1="80.75" x2="-14.00" y2="64.59"/>
<line x1="-14.00" y1="80.75" x2="14.00" y2="80.75"/>
<line x1="14.00" y1="80.75" x2="0.00" y2="56.50"/>
<line x1="-14.00" y1="80.75" x2="0.00" y2="72.67"/>
<line x1="14.00" y1="80.75" x2="0.00" y2="72.67"/>
<line x1="0.00" y1="56.50" x2="0.00" y2="72.67"/>
<line x1="28.00" y1="56.50" x2="14.00" y2="80.75"/>
<line x1="0.00" y1="56.50" x2="14.00" y2="64.59"/>
<line x1="28.00" y1="56.50" x2="14.00" y2="64.59"/>
<line x1="14.00" y1="80.75" x2="14.00" y2="64.59"/>
<line x1="14.00" y1="80.75" x2="42.00" y2="80.75"/>
<line x1="42.00" y1="80.75" x2="28.00" y2="56.50"/>
<line x1="14.00" y1="80.75" x2="28.00" y2="72.67"/>
<line x1="42.00" y1="80.75" x2="28.00" y2="72.67"/>
<line x1="28.00" y1="56.50" x2="28.00" y2="72.67"/>
<line x1="50.73" y1="65.63" x2="42.00" y2="80.75"/>
<line x1="28.00" y1="56.50" x2="42.00" y2="64.59"/>
<line x1="50.73" y1="59.55" x2="42.00" y2="64.59"/>
<line x1="42.00" y1="80.75" x2="42.00" y2="64.59"/>
<line x1="42.00" y1="80.75" x2="50.73" y2="80.75"/>
<line x1="42.00" y1="80.75" x2="50.73" y2="75.71"/>
<line x1="-42.00" y1="80.75" x2="-50.73" y2="95.87"/>
<line x1="-42.00" y1="80.75" x2="-50.73" y2="85.79"/>
<line x1="-14.00" y1="80.75" x2="-28.00" y2="105.00"/>
<line x1="-28.00" y1="105.00" x2="-42.00" y2="80.75"/>
<line x1="-42.00" y1="80.75" x2="-28.00" y2="88.83"/>
<line x1="-14.00" y1="80.75" x2="-28.00" y2="88.83"/>
<line x1="-28.00" y1="105.00" x2="-28.00" y2="88.83"/>
<line x1="-50.73" y1="105.00" x2="-28.00" y2="105.00"/>
<line x1="-50.73" y1="101.96" x2="-42.00" y2="96.92"/>
<line x1="-28.00" y1="105.00" x2="-42.00" y2="96.92"/>
<line x1="-42.00" y1="80.75" x2="-42.00" y2="96.92"/>
<line x1="14.00" y1="80.75" x2="0.00" y2="105.00"/>
<line x1="0.00" y1="105.00" x2="-14.00" y2="80.75"/>
<line x1="-14.00" y1="80.75" x2="0.00" y2="88.83"/>
<line x1="14.00" y1="80.75" x2="0.00" y2="88.83"/>
<line x1="0.00" y1="105.00" x2="0.00" y2="88.83"/>
<line x1="-28.00" y1="105.00" x2="0.00" y2="105.00"/>
<line x1="-28.00" y1="105.00" x2="-14.00" y2="96.92"/>
<line x1="0.00" y1="105.00" x2="-14.00" y2="96.92"/>
<line x1="-14.00" y1="80.75" x2="-14.00" y2="96.92"/>
<line x1="42.00" y1="80.75" x2="28.00" y2="105.00"/>
<line x1="28.00" y1="105.00" x2="14.00" y2="80.75"/>
<line x1="14.00" y1="80.75" x2="28.00" y2="88.83"/>
<line x1="42.00" y1="80.75" x2="28.00" y2="88.83"/>
<line x1="28.00" y1="105.00" x2="28.00" y2="88.83"/>
<line x1="0.00" y1="105.00" x2="28.00" y2="105.00"/>
<line x1="0.00" y1="105.00" x2="14.00" y2="96.92"/>
<line x1="28.00" y1="105.00" x2="14.00" y2="96.92"/>
<line x1="14.00" y1="80.75" x2="14.00" y2="96.92"/>
<line x1="50.73" y1="95.87" x2="42.00" y2="80.75"/>
<line x1="42.00" y1="80.75" x2="50.73" y2="85.79"/>
<line x1="28.00" y1="105.00" x2="50.73" y2="105.00"/>
<line x1="28.00" y1="105.00" x2="42.00" y2="96.92"/>
<line x1="50.73" y1="101.96" x2="42.00" y2="96.92"/>
<line x1="42.00" y1="80.75" x2="42.00" y2="96.92"/>
<line x1="-50.73" y1="129.25" x2="-42.00" y2="129.25"/>
<line x1="-42.00" y1="129.25" x2="-50.73" y2="114.13"/>
<line x1="-42.00" y1="129.25" x2="-50.73" y2="124.21"/>
<line x1="-28.00" y1="105.00" x2="-42.00" y2="129.25"/>
<line x1="-50.73" y1="108.04" x2="-42.00" y2="113.08"/>
<line x1="-28.00" y1="105.00" x2="-42.00" y2="113.08"/>
<line x1="-42.00" y1="129.25" x2="-42.00" y2="113.08"/>
<line x1="-42.00" y1="129.25" x2="-14.00" y2="129.25"/>
<line x1="-14.00" y1="129.25" x2="-28.00" y2="105.00"/>
<line x1="-42.00" y1="129.25" x2="-28.00" y2="121.17"/>
<line x1="-14.00" y1="129.25" x2="-28.00" y2="121.17"/>
<line x1="-28.00" y1="105.00" x2="-28.00" y2="121.17"/>
<line x1="0.00" y1="105.00" x2="-14.00" y2="129.25"/>
<line x1="-28.00" y1="105.00" x2="-14.00" y2="113.08"/>
<line x1="0.00" y1="105.00" x2="-14.00" y2="113.08"/>
<line x1="-14.00" y1="129.25" x2="-14.00" y2="113.08"/>
<line x1="-14.00" y1="129.25" x2="14.00" y2="129.25"/>
<line x1="14.00" y1="129.25" x2="0.00" y2="105.00"/>
<line x1="-14.00" y1="129.25" x2="0.00" y2="121.17"/>
<line x1="14.00" y1="129.25" x2="0.00" y2="121.17"/>
<line x1="0.00" y1="105.00" x2="0.00" y2="121.17"/>
<line x1="28.00" y1="105.00" x2="14.00" y2="129.25"/>
<line x1="0.00" y1="105.00" x2="14.00" y2="113.08"/>
<line x1="28.00" y1="105.00" x2="14.00" y2="113.08"/>
<line x1="14.00" y1="129.25" x2="14.00" y2="113.08"/>
<line x1="14.00" y1="129.25" x2="42.00" y2="129.25"/>
<line x1="42.00" y1="129.25" x2="28.00" y2="105.00"/>
<line x1="14.00" y1="129.25" x2="28.00" y2="121.17"/>
<line x1="42.00" y1="129.25" x2="28.00" y2="121.17"/>
<line x1="28.00" y1="105.00" x2="28.00" y2="121.17"/>
<line x1="50.73" y1="114.13" x2="42.00" y2="129.25"/>
<line x1="28.00" y1="105.00" x2="42.00" y2="113.08"/>
<line x1="50.73" y1="108.04" x2="42.00" y2="113.08"/>
<line x1="42.00" y1="129.25" x2="42.00" y2="113.08"/>
<line x1="42.00" y1="129.25" x2="50.73" y2="129.25"/>
<line x1="42.00" y1="129.25" x2="50.73" y2="124.21"/>
<line x1="-42.00" y1="129.25" x2="-50.73" y2="144.37"/>
<line x1="-42.00" y1="129.25" x2="-50.73" y2="134.29"/>
<line x1="-14.00" y1="129.25" x2="-28.00" y2="153.50"/>
<line x1="-28.00" y1="153.50" x2="-42.00" y2="129.25"/>
<line x1="-42.00" y1="129.25" x2="-28.00" y2="137.33"/>
<line x1="-14.00" y1="129.25" x2="-28.00" y2="137.33"/>
<line x1="-28.00" y1="153.50" x2="-28.00" y2="137.33"/>
<line x1="-50.73" y1="153.50" x2="-28.00" y2="153.50"/>
<line x1="-50.73" y1="150.45" x2="-42.00" y2="145.41"/>
<line x1="-28.00" y1="153.50" x2="-42.00" y2="145.41"/>
<line x1="-42.00" y1="129.25" x2="-42.00" y2="145.41"/>
<line x1="14.00" y1="129.25" x2="0.00" y2="153.50"/>
<line x1="0.00" y1="153.50" x2="-14.00" y2="129.25"/>
<line x1="-14.00" y1="129.25" x2="0.00" y2="137.33"/>
<line x1="14.00" y1="129.25" x2="0.00" y2="137.33"/>
<line x1="0.00" y1="153.50" x2="0.00" y2="137.33"/>
<line x1="-28.00" y1="153.50" x2="0.00" y2="153.50"/>
<line x1="-28.00" y1="153.50" x2="-14.00" y2="145.41"/>
<line x1="0.00" y1="153.50" x2="-14.00" y2="145.41"/>
<line x1="-14.00" y1="129.25" x2="-14.00" y2="145.41"/>
<line x1="42.00" y1="129.25" x2="28.00" y2="153.50"/>
<line x1="28.00" y1="153.50" x2="14.00" y2="129.25"/>
<line x1="14.00" y1="129.25" x2="28.00" y2="137.33"/>
<line x1="42.00" y1="129.25" x2="28.00" y2="137.33"/>
<line x1="28.00" y1="153.50" x2="28.00" y2="137.33"/>
<line x1="0.00" y1="153.50" x2="28.00" y2="153.50"/>
<line x1="0.00" y1="153.50" x2="14.00" y2="145.41"/>
<line x1="28.00" y1="153.50" x2="14.00" y2="145.41"/>
<line x1="14.00" y1="129.25" x2="14.00" y2="145.41"/>
<line x1="50.73" y1="144.37" x2="42.00" y2="129.25"/>
<line x1="42.00" y1="129.25" x2="50.73" y2="134.29"/>
<line x1="28.00" y1="153.50" x2="50.73" y2="153.50"/>
<line x1="28.00" y1="153.50" x2="42.00" y2="145.41"/>
<line x1="50.73" y1="150.45" x2="42.00" y2="145.41"/>
<line x1="42.00" y1="129.25" x2="42.00" y2="145.41"/>
<line x1="-50.73" y1="177.75" x2="-42.00" y2="177.75"/>
<line x1="-42.00" y1="177.75" x2="-50.73" y2="162.63"/>
<line x1="-42.00" y1="177.75" x2="-50.73" y2="172.71"/>
<line x1="-28.00" y1="153.50" x2="-42.00" y2="177.75"/>
<line x1="-50.73" y1="156.54" x2="-42.00" y2="161.58"/>
<line x1="-28.00" y1="153.50" x2="-42.00" y2="161.58"/>
<line x1="-42.00" y1="177.75" x2="-42.00" y2="161.58"/>
<line x1="-42.00" y1="177.75" x2="-14.00" y2="177.75"/>
<line x1="-14.00" y1="177.75" x2="-28.00" y2="153.50"/>
<line x1="-42.00" y1="177.75" x2="-28.00" y2="169.66"/>
<line x1="-14.00" y1="177.75" x2="-28.00" y2="169.66"/>
<line x1="-28.00" y1="153.50" x2="-28.00" y2="169.66"/>
<line x1="0.00" y1="153.50" x2="-14.00" y2="177.75"/>
<line x1="-28.00" y1="153.50" x2="-14.00" y2="161.58"/>
<line x1="0.00" y1="153.50" x2="-14.00" y2="161.58"/>
<line x1="-14.00" y1="177.75" x2="-14.00" y2="161.58"/>
<line x1="-14.00" y1="177.75" x2="14.00" y2="177.75"/>
<line x1="14.00" y1="177.75" x2="0.00" y2="153.50"/>
<line x1="-14.00" y1="177.75" x2="0.00" y2="169.66"/>
<line x1="14.00" y1="177.75" x2="0.00" y2="169.66"/>
<line x1="0.00" y1="153.50" x2="0.00" y2="169.66"/>
<line x1="28.00" y1="153.50" x2="14.00" y2="177.75"/>
<line x1="0.00" y1="153.50" x2="14.00" y2="161.58"/>
<line x1="28.00" y1="153.50" x2="14.00" y2="161.58"/>
<line x1="14.00" y1="177.75" x2="14.00" y2="161.58"/>
<line x1="14.00" y1="177.75" x2="42.00" y2="177.75"/>
<line x1="42.00" y1="177.75" x2="28.00" y2="153.50"/>
<line x1="14.00" y1="177.75" x2="28.00" y2="169.66"/>
<line x1="42.00" y1="177.75" x2="28.00" y2="169.66"/>
<line x1="28.00" y1="153.50" x2="28.00" y2="169.66"/>
<line x1="50.73" y1="162.63" x2="42.00" y2="177.75"/>
<line x1="28.00" y1="153.50" x2="42.00" y2="161.58"/>
<line x1="50.73" y1="156.54" x2="42.00" y2="161.58"/>
<line x1="42.00" y1="177.75" x2="42.00" y2="161.58"/>
<line x1="42.00" y1="177.75" x2="50.73" y2="177.75"/>
<line x1="42.00" y1="177.75" x2="50.73" y2="172.71"/>
<line x1="-42.00" y1="177.75" x2="-44.96" y2="182.88"/>
<line x1="-42.00" y1="177.75" x2="-50.73" y2="182.79"/>
<line x1="-14.00" y1="177.75" x2="-16.96" y2="182.88"/>
<line x1="-39.04" y1="182.88" x2="-42.00" y2="177.75"/>
<line x1="-42.00" y1="177.75" x2="-33.11" y2="182.88"/>
<line x1="-14.00" y1="177.75" x2="-22.89" y2="182.88"/>
<line x1="-42.00" y1="177.75" x2="-42.00" y2="182.88"/>
<line x1="14.00" y1="177.75" x2="11.04" y2="182.88"/>
<line x1="-11.04" y1="182.88" x2="-14.00" y2="177.75"/>
<line x1="-14.00" y1="177.75" x2="-5.11" y2="182.88"/>
<line x1="14.00" y1="177.75" x2="5.11" y2="182.88"/>
<line x1="-14.00" y1="177.75" x2="-14.00" y2="182.88"/>
<line x1="42.00" y1="177.75" x2="39.04" y2="182.88"/>
<line x1="16.96" y1="182.88" x2="14.00" y2="177.75"/>
<line x1="14.00" y1="177.75" x2="22.89" y2="182.88"/>
<line x1="42.00" y1="177.75" x2="33.11" y2="182.88"/>
<line x1="14.00" y1="177.75" x2="14.00" y2="182.88"/>
<line x1="44.96" y1="182.88" x2="42.00" y2="177.75"/>
<line x1="42.00" y1="177.75" x2="50.73" y2="182.79"/>
<line x1="42.00" y1="177.75" x2="42.00" y2="182.88"/>
<line x1="-49.05" y1="28.80" x2="49.05" y2="28.80"/>
<line x1="49.05" y1="28.80" x2="49.05" y2="181.20"/>
<line x1="49.05" y1="181.20" x2="-49.05" y2="181.20"/>
<line x1="-49.05" y1="181.20" x2="-49.05" y2="28.80"/>
<line x1="-49.05" y1="179.52" x2="-49.05" y2="198.00"/>
<line x1="-49.05" y1="12.00" x2="-49.05" y2="30.48"/>
<line x1="-24.52" y1="179.52" x2="-24.52" y2="198.00"/>
<line x1="-24.52" y1="12.00" x2="-24.52" y2="30.48"/>
<line x1="0.00" y1="179.52" x2="0.00" y2="198.00"/>
<line x1="0.00" y1="12.00" x2="0.00" y2="30.48"/>
<line x1="24.52" y1="179.52" x2="24.52" y2="198.00"/>
<line x1="24.52" y1="12.00" x2="24.52" y2="30.48"/>
<line x1="49.05" y1="179.52" x2="49.05" y2="198.00"/>
<line x1="49.05" y1="12.00" x2="49.05" y2="30.48"/>
<line x1="-65.85" y1="28.80" x2="-47.37" y2="28.80"/>
<line x1="47.37" y1="28.80" x2="65.85" y2="28.80"/>
<line x1="-65.85" y1="54.20" x2="-47.37" y2="54.20"/>
<line x1="47.37" y1="54.20" x2="65.85" y2="54.20"/>
<line x1="-65.85" y1="79.60" x2="-47.37" y2="79.60"/>
<line x1="47.37" y1="79.60" x2="65.85" y2="79.60"/>
<line x1="-65.85" y1="105.00" x2="-47.37" y2="105.00"/>
<line x1="47.37" y1="105.00" x2="65.85" y2="105.00"/>
<line x1="-65.85" y1="130.40" x2="-47.37" y2="130.40"/>
<line x1="47.37" y1="130.40" x2="65.85" y2="130.40"/>
<line x1="-65.85" y1="155.80" x2="-47.37" y2="155.80"/>
<line x1="47.37" y1="155.80" x2="65.85" y2="155.80"/>
<line x1="-65.85" y1="181.20" x2="-47.37" y2="181.20"/>
<line x1="47.37" y1="181.20" x2="65.85" y2="181.20"/>
</g>
<text x="-73.8" y="216.0" fill="#c8a06a" font-family="monospace" font-size="7">kawari_asanoha  155.7 x 210.0 x 4.0 mm  grid 28.0 mm</text>
</svg>